<svg width="36" height="36" viewBox="0 0 36 36" fill="none" xmlns="http://www.w3.org/2000/svg">
<path d="M19.0352 12.7351C18.4727 12.5551 17.5277 12.5551 16.9652 12.7351L9.42773 15.0301C8.86523 15.2101 8.86523 15.4801 9.42773 15.6601L16.9652 17.9551C17.5277 18.1351 18.4727 18.1351 19.0352 17.9551L26.5727 15.6601C27.1352 15.4801 27.1352 15.2101 26.5727 15.0301L19.0352 12.7351Z" fill="white"/>
<path d="M17.1228 19.2827L12.5103 17.8652V21.9602C12.5103 21.9602 13.6128 23.4002 18.0003 23.4002C22.3878 23.4002 23.4903 21.9602 23.4903 21.9602V17.8652L18.8778 19.2827C18.3153 19.4627 17.6853 19.4627 17.1228 19.2827Z" fill="white"/>
<path d="M10.2152 19.9124V16.8524L9.60771 16.6499V19.9124L9.24771 20.5874C9.18021 20.6999 9.15771 20.8349 9.15771 20.9699V21.0149C9.15771 21.4424 9.49521 21.7799 9.92271 21.7799C10.3502 21.7799 10.6877 21.4424 10.6877 21.0149V20.9699C10.6877 20.8349 10.6652 20.7224 10.5977 20.6099L10.2152 19.9124Z" fill="white"/>
<path d="M18 36C27.9411 36 36 27.9411 36 18C36 8.05887 27.9411 0 18 0C8.05887 0 0 8.05887 0 18C0 27.9411 8.05887 36 18 36Z" fill="#F6CEB4"/>
<path fill-rule="evenodd" clip-rule="evenodd" d="M18 9C13.0275 9 9 13.0275 9 18C9 22.9725 13.0275 27 18 27C22.9725 27 27 22.9725 27 18C27 13.0275 22.9725 9 18 9ZM17.19 13.095V18C17.19 18.225 17.28 18.4275 17.4375 18.585L20.7 21.8475C21.015 22.1625 21.5325 22.1625 21.8475 21.8475C22.1625 21.5325 22.1625 21.015 21.8475 20.7L18.81 17.6625V13.095C18.81 12.645 18.45 12.285 18 12.285C17.55 12.2625 17.19 12.645 17.19 13.095Z" fill="white"/>
</svg>
