<svg width="36" height="36" viewBox="0 0 36 36" fill="none" xmlns="http://www.w3.org/2000/svg">
<path d="M18 36C27.9411 36 36 27.9411 36 18C36 8.05887 27.9411 0 18 0C8.05887 0 0 8.05887 0 18C0 27.9411 8.05887 36 18 36Z" fill="#F6CEB4"/>
<path d="M26.5273 16.02H13.2973C12.8248 16.02 12.4423 16.4025 12.4423 16.875V24.5925C12.4423 25.065 12.8248 25.4475 13.2973 25.4475H26.5273C26.9998 25.4475 27.3823 25.065 27.3823 24.5925V16.875C27.3823 16.4025 26.9998 16.02 26.5273 16.02ZM17.1223 19.935C17.1223 20.1825 16.9198 20.385 16.6723 20.385H14.4223C14.1748 20.385 13.9723 20.1825 13.9723 19.935V18.765C13.9723 18.5175 14.1748 18.315 14.4223 18.315H16.6723C16.9198 18.315 17.1223 18.5175 17.1223 18.765V19.935Z" fill="white"/>
<path d="M11.52 23.7826C11.5875 23.9401 11.6775 24.0526 11.8125 24.1651V18.7651L9.85498 19.5526L11.52 23.7826Z" fill="white"/>
<path d="M15.1425 15.3901L23.04 12.2626L22.5675 11.0701C22.3875 10.6201 21.8925 10.4176 21.4425 10.5976L9.15748 15.4801C8.70748 15.6601 8.50498 16.1551 8.68498 16.6051L9.15748 17.7751L11.835 16.7176C11.9025 15.9751 12.5325 15.3901 13.2975 15.3901H15.1425Z" fill="white"/>
<path d="M24.2774 15.3901L23.7374 14.0176L20.2949 15.3901H24.2774Z" fill="white"/>
</svg>
