<svg width="36" height="36" viewBox="0 0 36 36" fill="none" xmlns="http://www.w3.org/2000/svg">
<path d="M18 36C27.9411 36 36 27.9411 36 18C36 8.05887 27.9411 0 18 0C8.05887 0 0 8.05887 0 18C0 27.9411 8.05887 36 18 36Z" fill="#5FCCC8"/>
<path d="M22.275 13.95V9.675C22.275 9.225 22.05 9 21.6 9H11.25C10.8 9 10.575 9.225 10.575 9.675V26.55C10.575 27 10.8 27.225 11.25 27.225H24.75C25.2 27.225 25.425 27 25.425 26.55V17.775C24.525 17.55 23.625 17.1 23.175 16.425C22.5 15.75 22.275 14.85 22.275 13.95ZM21.6 22.05H19.35V24.3H16.65V22.05H14.4V19.575H16.65V17.325H19.125V19.575H21.375L21.6 22.05ZM25.425 10.575V16.425C24.75 16.2 24.3 15.975 23.85 15.525C23.4 15.075 23.175 14.4 23.175 13.725V9.675H24.75C24.975 9.675 25.2 9.675 25.425 9.9C25.425 10.125 25.425 10.35 25.425 10.575Z" fill="white"/>
</svg>
