<svg width="36" height="36" viewBox="0 0 36 36" fill="none" xmlns="http://www.w3.org/2000/svg">
<path d="M18 36C27.9411 36 36 27.9411 36 18C36 8.05887 27.9411 0 18 0C8.05887 0 0 8.05887 0 18C0 27.9411 8.05887 36 18 36Z" fill="#5FCCC8"/>
<path d="M19.8223 11.0699C20.4298 11.2274 20.9698 11.4299 21.4648 11.6999C21.9598 11.9699 22.3648 12.2849 22.7248 12.6224C23.0623 12.9599 23.3548 13.3199 23.5348 13.7024C23.7373 14.0849 23.8498 14.4449 23.8498 14.7824C23.8498 14.8949 23.8048 15.0074 23.7148 15.0974C23.6248 15.1874 23.5348 15.2324 23.4223 15.2324H20.8123C20.6323 15.2324 20.4748 15.2099 20.3623 15.1424C20.2498 15.0974 20.1373 15.0074 20.0023 14.8949C19.9798 14.8499 19.9123 14.7824 19.8223 14.6924C19.7323 14.6024 19.6198 14.5124 19.4398 14.3999C19.2823 14.3099 19.0798 14.2199 18.8548 14.1524C18.6073 14.0849 18.3148 14.0399 17.9773 14.0399C17.7298 14.0399 17.4823 14.0624 17.2573 14.0849C17.0323 14.1074 16.8073 14.1749 16.6273 14.2424C16.4473 14.3099 16.2898 14.4224 16.1773 14.5574C16.0648 14.6924 16.0198 14.8499 16.0198 15.0524C16.0198 15.2549 16.0873 15.4124 16.1998 15.5474C16.3348 15.6824 16.5373 15.7949 16.8298 15.9074C17.1223 16.0199 17.5273 16.1324 18.0223 16.2449C18.5173 16.3574 19.1248 16.4699 19.8673 16.6274C20.6098 16.7849 21.2398 16.9649 21.7798 17.1899C22.3198 17.4149 22.7923 17.7074 23.1523 18.0449C23.5123 18.3824 23.7823 18.7874 23.9623 19.2374C24.1423 19.6874 24.2323 20.2499 24.2323 20.8574C24.2323 21.4199 24.1198 21.9374 23.9173 22.3874C23.7148 22.8599 23.3998 23.2649 23.0173 23.6249C22.6348 23.9849 22.1623 24.2774 21.6223 24.5249C21.0823 24.7724 20.4748 24.9299 19.8223 25.0424V26.4599C19.8223 26.6174 19.7773 26.7299 19.6648 26.8424C19.5523 26.9549 19.4398 26.9999 19.2823 26.9999H16.6723C16.5148 26.9999 16.4023 26.9549 16.2898 26.8424C16.1773 26.7299 16.1323 26.6174 16.1323 26.4599V24.9749C15.5023 24.8174 14.9173 24.6149 14.3998 24.3449C13.8823 24.0749 13.4548 23.7599 13.0723 23.4224C12.7123 23.0849 12.4198 22.7024 12.2173 22.2974C12.0373 21.9149 11.9248 21.5099 11.9023 21.1049C11.9023 20.9924 11.9473 20.8799 12.0373 20.7899C12.1273 20.6999 12.2173 20.6549 12.3298 20.6549H14.9398C15.1198 20.6549 15.2773 20.6774 15.3898 20.7224C15.5023 20.7674 15.5923 20.8349 15.7048 20.9249C15.7498 20.9699 15.8398 21.0599 15.9523 21.1949C16.0648 21.3299 16.1998 21.4424 16.3798 21.5774C16.5598 21.7124 16.7848 21.8249 17.0548 21.9149C17.3248 21.9824 17.6623 22.0499 18.0673 22.0499C18.7648 22.0499 19.3723 21.9824 19.8448 21.8249C20.3173 21.6674 20.5423 21.3749 20.5423 20.9699C20.5423 20.7674 20.4523 20.6099 20.2723 20.4749C20.1148 20.3399 19.8673 20.2274 19.5073 20.1149C19.1698 20.0024 18.7198 19.8899 18.1798 19.7774C17.6398 19.6649 17.0098 19.5299 16.2673 19.3724C14.8948 19.0799 13.8823 18.6074 13.2523 17.9099C12.6223 17.2124 12.3073 16.3124 12.3073 15.1649C12.3073 14.6924 12.3973 14.2424 12.5773 13.8149C12.7573 13.3874 13.0048 12.9824 13.3198 12.6224C13.6573 12.2624 14.0398 11.9474 14.5123 11.6774C14.9848 11.4074 15.5248 11.2049 16.1323 11.0699V9.58492C16.1323 9.42742 16.1773 9.31492 16.2898 9.20242C16.4023 9.08992 16.5148 9.04492 16.6723 9.04492H19.2823C19.4398 9.04492 19.5523 9.08992 19.6648 9.20242C19.7773 9.31492 19.8223 9.42742 19.8223 9.58492V11.0699Z" fill="white"/>
</svg>
