<svg width="36" height="36" viewBox="0 0 36 36" fill="none" xmlns="http://www.w3.org/2000/svg">
<path d="M18 36C27.9411 36 36 27.9411 36 18C36 8.05887 27.9411 0 18 0C8.05887 0 0 8.05887 0 18C0 27.9411 8.05887 36 18 36Z" fill="#F6CEB4"/>
<path d="M21.5999 9.4502H8.32495C7.64995 9.4502 7.19995 9.9002 7.19995 10.5752V18.6752C7.19995 19.3502 7.64995 19.8002 8.32495 19.8002H8.99995V22.5002C8.99995 22.9502 9.44995 23.1752 9.89995 22.9502L10.35 22.5002C10.35 22.2752 10.35 22.2752 10.35 22.0502C10.35 20.2502 11.2499 18.9002 12.5999 18.0002H9.44995C9.22495 18.0002 8.77495 17.5502 8.77495 17.3252C8.77495 16.8752 8.99995 16.6502 9.44995 16.6502H14.3999V15.5252H9.44995C8.99995 15.5252 8.77495 15.3002 8.77495 14.8502C8.77495 14.4002 8.99995 14.1752 9.44995 14.1752H14.8499C15.2999 13.9502 15.7499 13.7252 16.1999 13.7252H22.9499V10.8002C22.9499 10.1252 22.2749 9.4502 21.5999 9.4502ZM20.4749 13.0502H9.44995C8.99995 13.0502 8.77495 12.8252 8.77495 12.3752C8.77495 11.9252 8.99995 11.7002 9.44995 11.7002H20.4749C20.9249 11.7002 21.1499 11.9252 21.1499 12.3752C21.1499 12.6002 20.9249 13.0502 20.4749 13.0502Z" fill="white"/>
<path d="M27.9 14.4004H16.2C15.525 14.4004 15.075 14.8504 15.075 15.5254V17.1004C15.3 17.1004 15.3 17.1004 15.525 17.1004H15.75C15.975 17.1004 16.425 17.1004 16.65 17.3254V17.1004C16.65 16.8754 16.875 16.4254 17.325 16.4254H27C27.225 16.4254 27.675 16.6504 27.675 17.1004C27.675 17.3254 27.45 17.7754 27 17.7754H18C18.225 17.5504 18.675 18.0004 19.125 18.4504H26.775C27 18.4504 27.45 18.6754 27.45 19.1254C27.45 19.3504 27.225 19.8004 26.775 19.8004H20.025C20.25 19.8004 20.475 20.2504 20.475 20.4754H26.775C27 20.4754 27.45 20.7004 27.45 21.1504C27.45 21.3754 27.225 21.8254 26.775 21.8254H20.7V22.0504C20.7 22.5004 20.7 23.1754 20.475 23.6254H23.85L26.55 26.3254C26.775 26.5504 27.225 26.3254 27.225 26.1004V23.6254H27.675C28.35 23.6254 28.8 23.1754 28.8 22.5004V15.3004C28.8 14.8504 28.35 14.4004 27.9 14.4004Z" fill="white"/>
<path fill-rule="evenodd" clip-rule="evenodd" d="M15.525 17.5503C13.05 17.5503 11.025 19.5753 11.025 22.0503C11.025 24.5253 13.05 26.5503 15.525 26.5503C18 26.5503 20.025 24.5253 20.025 22.0503C20.025 19.5753 18 17.5503 15.525 17.5503ZM15.3 19.5753V22.0503C15.3 22.0503 15.3 22.2753 15.525 22.2753L17.1 23.8503C17.325 24.0753 17.55 24.0753 17.775 23.8503C18 23.6253 18 23.4003 17.775 23.1753L15.975 21.8253V19.5753C15.975 19.3503 15.75 19.1253 15.525 19.1253C15.3 19.1253 15.3 19.3503 15.3 19.5753Z" fill="white"/>
</svg>
