<svg width="36" height="36" viewBox="0 0 36 36" fill="none" xmlns="http://www.w3.org/2000/svg">
<path d="M18 36C27.9411 36 36 27.9411 36 18C36 8.05887 27.9411 0 18 0C8.05887 0 0 8.05887 0 18C0 27.9411 8.05887 36 18 36Z" fill="#F6CEB4"/>
<path d="M10.6207 17.5904H14.1753C14.2878 17.5904 14.378 17.5227 14.423 17.4102C14.513 17.0952 14.6027 16.6678 14.6927 16.3078C15.0527 14.5978 15.3231 13.3604 16.2231 13.3604C17.0781 13.3604 17.2805 14.5528 17.753 17.1853C17.888 17.9053 18.0454 18.8729 18.2029 19.5254C18.2254 19.6379 18.293 19.6379 18.338 19.5254C18.563 19.0079 18.8106 18.3104 18.9681 17.8604C19.5306 16.2629 19.8004 15.5203 20.4304 15.5203C21.0829 15.5203 21.3755 16.2404 21.668 17.0054C21.7355 17.1629 21.8252 17.4104 21.9152 17.5904C21.9827 17.7029 22.0729 17.7478 22.1854 17.7703H25.3802C25.4927 17.7703 25.6055 17.7029 25.673 17.6129C25.898 17.2529 26.078 16.8929 26.2355 16.4879C26.4605 15.9479 26.5954 15.3629 26.6179 14.7779C26.5504 12.3254 24.5253 10.3678 22.0503 10.4353C20.4753 10.4128 19.0128 11.2004 18.1353 12.5279C18.1128 12.5729 18.0452 12.618 18.0002 12.5955C17.9777 12.5955 17.9557 12.5729 17.9332 12.5279C17.0782 11.2229 15.6152 10.4353 14.0402 10.4353C11.5877 10.3903 9.54064 12.3254 9.47314 14.7779C9.47314 15.3629 9.60795 15.9479 9.83295 16.4879C9.96795 16.8254 10.1254 17.1403 10.3279 17.4328C10.3954 17.5228 10.5082 17.5904 10.6207 17.5904Z" fill="white"/>
<path d="M21.8029 18.9177C21.1504 18.9177 20.8578 18.1976 20.5653 17.4326C20.5428 17.3876 20.5202 17.3203 20.4977 17.2753C20.4527 17.1853 20.4076 17.1853 20.3626 17.2978C20.2501 17.6128 20.1153 17.9504 20.0253 18.2429C19.3278 20.2229 18.9226 21.2578 18.1351 21.2578C17.3026 21.2578 17.0778 20.1329 16.5828 17.3879C16.4703 16.7579 16.3354 15.9478 16.1779 15.3178C16.1554 15.2053 16.1103 15.2053 16.0878 15.3178C15.9753 15.7453 15.8625 16.2179 15.795 16.5554C15.48 18.0179 15.3225 18.7603 14.6475 18.7603H9.36035C9.15785 18.7603 9 18.9402 9 19.1427V19.5253C9 19.7278 9.18037 19.9079 9.38287 19.9079H11.835C11.9475 19.9079 12.0603 19.9752 12.1503 20.0652C13.8378 22.1127 15.7729 23.9576 17.8879 25.5776C17.9779 25.6451 18.0902 25.6451 18.2027 25.5776C20.2727 24.0026 22.1627 22.2251 23.8277 20.2226C23.9177 20.1326 24.0305 20.0877 24.143 20.0652H26.6177C26.8202 20.0652 27 19.8851 27 19.6826V19.3003C27 19.0978 26.8427 18.9177 26.6402 18.9177H21.8029Z" fill="white"/>
</svg>
