<svg width="10" height="10" viewBox="0 0 10 10" fill="none" xmlns="http://www.w3.org/2000/svg">
<path d="M4.34 8.88014C4.505 9.06014 4.745 9.15014 5 9.15014C5.255 9.15014 5.495 9.04514 5.66 8.88014L8.84 5.70014C9.02 5.52014 9.11 5.28014 9.11 5.04014C9.11 4.78514 9.005 4.54514 8.84 4.38014C8.66 4.20014 8.42 4.11014 8.18 4.11014C7.925 4.11014 7.685 4.21514 7.52 4.38014L5.945 5.94014V1.71014C5.945 1.45514 5.84 1.21514 5.675 1.05014C5.495 0.870136 5.255 0.765137 5 0.765137C4.745 0.765137 4.505 0.870136 4.34 1.03514C4.16 1.23014 4.055 1.45514 4.055 1.71014V5.94014L2.48 4.36514C2.3 4.18514 2.06 4.08014 1.82 4.08014C1.565 4.08014 1.325 4.18514 1.16 4.35014C0.965 4.53014 0.875 4.77014 0.875 5.02514C0.875 5.28014 0.98 5.52014 1.145 5.68514L4.34 8.88014Z" fill="#5FCCC8"/>
</svg>
