<svg width="14" height="6" viewBox="0 0 14 6" fill="none" xmlns="http://www.w3.org/2000/svg">
<path d="M13.7799 3.30035V1.51535C13.7799 1.08035 13.4349 0.735352 12.9999 0.735352C12.5649 0.735352 12.2199 1.08035 12.2199 1.51535V3.37535V3.40535C12.2199 3.46535 12.2049 3.55535 12.1749 3.60035C12.1599 3.61535 12.0699 3.66035 11.8749 3.66035H2.12489C1.92989 3.66035 1.85489 3.61535 1.82489 3.60035C1.79489 3.57035 1.77989 3.46535 1.77989 3.40535V3.37535V1.51535C1.77989 1.08035 1.43489 0.735352 0.999891 0.735352C0.564891 0.735352 0.219891 1.08035 0.219891 1.51535V3.28535C0.219891 3.37535 0.204891 3.52535 0.234891 3.70535C0.279891 4.06535 0.429891 4.38035 0.654891 4.63535C0.819891 4.83035 1.02989 4.98035 1.28489 5.07035C1.53989 5.17535 1.80989 5.22035 2.12489 5.22035H11.8749C12.1899 5.22035 12.4749 5.17535 12.7149 5.07035C12.9549 4.96535 13.1649 4.83035 13.3449 4.63535C13.5699 4.38035 13.7049 4.06535 13.7649 3.70535C13.7799 3.54035 13.7799 3.39035 13.7799 3.30035Z" fill="#5FCCC8"/>
</svg>
