<svg width="32" height="32" viewBox="0 0 32 32" fill="none" xmlns="http://www.w3.org/2000/svg">
<path d="M21.1343 0H4.55029C4.08857 0 3.71429 0.374286 3.71429 1.10057V31.4286C3.71429 31.6257 4.08857 32 4.55029 32H27.4497C27.9114 32 28.2857 31.6257 28.2857 31.4286V7.416C28.2857 7.01829 28.2326 6.89029 28.1389 6.796L21.4897 0.146857C21.3954 0.0531429 21.2674 0 21.1343 0Z" fill="white"/>
<path d="M21.4286 0.0864258V6.85728H28.1994L21.4286 0.0864258Z" fill="#E7E7E7"/>
<path d="M10.8177 10.857C12.2597 10.857 13.4286 9.68805 13.4286 8.24611C13.4286 6.80417 12.2597 5.63525 10.8177 5.63525C9.37578 5.63525 8.20686 6.80417 8.20686 8.24611C8.20686 9.68805 9.37578 10.857 10.8177 10.857Z" fill="#F3D55B"/>
<path d="M3.71429 22.2856H10H28.2857V15.9999L22.5714 10.5713L16.5714 17.1427L13.4383 14.0096L3.71429 22.2856Z" fill="#26B99A"/>
<path d="M27.4497 31.9999H4.55029C4.08857 31.9999 3.71429 31.6256 3.71429 31.1639V22.2856H28.2857V31.1639C28.2857 31.6256 27.9114 31.9999 27.4497 31.9999Z" fill="#14A085"/>
<path d="M12.2434 24.3716V28.8562C12.2434 29.127 12.1937 29.355 12.0949 29.5396C11.996 29.7242 11.8629 29.8727 11.6966 29.9847C11.5297 30.0967 11.3383 30.175 11.1223 30.219C10.9057 30.2636 10.6834 30.2859 10.4543 30.2859C10.3394 30.2859 10.2051 30.2739 10.052 30.2504C9.89829 30.227 9.73943 30.191 9.57543 30.1413C9.41143 30.0916 9.25371 30.0356 9.10286 29.9733C8.95143 29.911 8.824 29.8407 8.72 29.7624L9.11829 29.1299C9.17029 29.1659 9.24457 29.2042 9.34114 29.243C9.43714 29.2819 9.54286 29.3184 9.65771 29.3522C9.772 29.3864 9.892 29.4156 10.0171 29.4419C10.1423 29.4682 10.2594 29.4807 10.3686 29.4807C10.6446 29.4807 10.8646 29.427 11.0286 29.3207C11.1926 29.2144 11.2794 29.0327 11.2903 28.7779V24.3716H12.2434Z" fill="white"/>
<path d="M14.5794 30.2471H13.6417V24.4888H15.2977C15.5423 24.4888 15.7846 24.5276 16.024 24.6059C16.2634 24.6842 16.4783 24.8013 16.6686 24.9573C16.8589 25.1133 17.0126 25.3025 17.1297 25.5236C17.2469 25.7448 17.3057 25.9933 17.3057 26.2699C17.3057 26.5619 17.256 26.8259 17.1571 27.0631C17.0583 27.3002 16.92 27.4996 16.7429 27.6608C16.5657 27.8219 16.352 27.9471 16.1023 28.0356C15.8526 28.1242 15.576 28.1682 15.2743 28.1682H14.5789V30.2471H14.5794ZM14.5794 25.2002V27.4813H15.4389C15.5531 27.4813 15.6663 27.4619 15.7789 27.4225C15.8909 27.3836 15.9937 27.3196 16.0874 27.2311C16.1811 27.1425 16.2566 27.0191 16.3137 26.8602C16.3709 26.7013 16.3994 26.5048 16.3994 26.2705C16.3994 26.1768 16.3863 26.0682 16.3606 25.9465C16.3343 25.8242 16.2811 25.7071 16.2006 25.5951C16.1194 25.4831 16.0063 25.3893 15.8606 25.3139C15.7143 25.2379 15.5217 25.2002 15.2823 25.2002H14.5794Z" fill="white"/>
<path d="M22.5714 27.2778V29.5041C22.4514 29.6555 22.3177 29.7784 22.1691 29.8749C22.0206 29.9715 21.8646 30.0509 21.7006 30.1132C21.5366 30.1755 21.3674 30.2201 21.1926 30.2458C21.0177 30.2732 20.8451 30.2858 20.6731 30.2858C20.3291 30.2858 20.0131 30.2235 19.724 30.0984C19.4349 29.9732 19.1823 29.7887 18.9663 29.5435C18.7503 29.2984 18.5806 28.9915 18.4583 28.6218C18.336 28.2521 18.2749 27.8247 18.2749 27.3407C18.2749 26.8567 18.336 26.4304 18.4583 26.0635C18.5806 25.6961 18.7497 25.3904 18.9663 25.1458C19.1823 24.9007 19.436 24.7149 19.728 24.5869C20.0194 24.4589 20.3349 24.3955 20.6731 24.3955C20.9857 24.3955 21.2771 24.4475 21.548 24.5515C21.8189 24.6561 22.0606 24.8121 22.2743 25.0201L21.6257 25.5984C21.5006 25.4469 21.3571 25.3378 21.196 25.2704C21.0343 25.2029 20.868 25.1686 20.696 25.1686C20.5034 25.1686 20.3194 25.2046 20.1451 25.2778C19.9703 25.3509 19.8143 25.4744 19.6766 25.6486C19.5383 25.8235 19.4303 26.0481 19.3526 26.3247C19.2749 26.6012 19.2326 26.9389 19.2274 27.3401C19.2326 27.7309 19.2731 28.0692 19.3486 28.3555C19.424 28.6418 19.528 28.8761 19.6611 29.0584C19.7943 29.2407 19.9451 29.3761 20.1143 29.4647C20.2834 29.5532 20.4617 29.5972 20.6497 29.5972C20.7069 29.5972 20.7834 29.5932 20.88 29.5852C20.976 29.5772 21.0726 29.5647 21.1691 29.5464C21.2651 29.5281 21.3577 29.5035 21.4463 29.4721C21.5349 29.4407 21.6 29.3967 21.6417 29.3395V27.9178H20.6651V27.2772H22.5714V27.2778Z" fill="white"/>
</svg>
