<svg width="32" height="32" viewBox="0 0 32 32" fill="none" xmlns="http://www.w3.org/2000/svg">
<path d="M21.1343 0H4.55029C4.08857 0 3.71429 0.374286 3.71429 1.10057V31.4286C3.71429 31.6257 4.08857 32 4.55029 32H27.4497C27.9114 32 28.2857 31.6257 28.2857 31.4286V7.416C28.2857 7.01829 28.2326 6.89029 28.1389 6.796L21.4897 0.146857C21.3954 0.0531429 21.2674 0 21.1343 0Z" fill="white"/>
<path d="M21.4286 0.0864258V6.85728H28.1994L21.4286 0.0864258Z" fill="#E7E7E7"/>
<path d="M11.1509 19.0421C10.952 19.0421 10.7611 18.9775 10.5983 18.8558C10.0034 18.4095 9.92343 17.913 9.96114 17.5747C10.0651 16.6444 11.2154 15.6707 13.3811 14.6787C14.2406 12.7953 15.0583 10.4747 15.5457 8.53584C14.9754 7.29469 14.4211 5.68441 14.8251 4.73984C14.9669 4.40898 15.1434 4.15527 15.4731 4.04555C15.6034 4.00212 15.9326 3.94727 16.0537 3.94727C16.3417 3.94727 16.5949 4.31812 16.7743 4.54669C16.9429 4.76155 17.3251 5.21698 16.5611 8.43355C17.3314 10.0244 18.4229 11.645 19.4686 12.7547C20.2177 12.6193 20.8623 12.5501 21.3874 12.5501C22.2823 12.5501 22.8246 12.7587 23.0457 13.1884C23.2286 13.5438 23.1537 13.9593 22.8229 14.4227C22.5046 14.8678 22.0657 15.1033 21.5543 15.1033C20.8594 15.1033 20.0503 14.6644 19.148 13.7975C17.5269 14.1364 15.6337 14.741 14.1034 15.4101C13.6257 16.4238 13.168 17.2404 12.7417 17.8393C12.156 18.6593 11.6509 19.0421 11.1509 19.0421ZM12.672 16.113C11.4509 16.7993 10.9531 17.3633 10.9171 17.681C10.9114 17.7335 10.896 17.8718 11.1634 18.0764C11.2486 18.0496 11.7457 17.8227 12.672 16.113ZM20.4646 13.5747C20.9303 13.933 21.044 14.1141 21.3486 14.1141C21.4823 14.1141 21.8634 14.1084 22.04 13.8621C22.1251 13.7427 22.1583 13.6661 22.1714 13.625C22.1011 13.5878 22.008 13.5124 21.5 13.5124C21.2114 13.513 20.8486 13.5255 20.4646 13.5747ZM16.196 9.81355C15.7874 11.2273 15.248 12.7536 14.668 14.1358C15.8623 13.6724 17.1606 13.2678 18.38 12.9816C17.6086 12.0856 16.8377 10.9667 16.196 9.81355ZM15.8491 4.97812C15.7931 4.99698 15.0891 5.98212 15.904 6.81584C16.4463 5.60727 15.8737 4.97012 15.8491 4.97812Z" fill="#CC4B4C"/>
<path d="M27.4497 31.9999H4.55029C4.08857 31.9999 3.71429 31.6256 3.71429 31.1639V22.2856H28.2857V31.1639C28.2857 31.6256 27.9114 31.9999 27.4497 31.9999Z" fill="#CC4B4C"/>
<path d="M9.93429 30.2855H8.99657V24.5278H10.6526C10.8971 24.5278 11.1394 24.5667 11.3789 24.645C11.6183 24.7233 11.8331 24.8404 12.0234 24.9964C12.2137 25.1524 12.3674 25.3415 12.4846 25.5627C12.6017 25.7838 12.6606 26.0324 12.6606 26.309C12.6606 26.601 12.6109 26.865 12.512 27.1021C12.4131 27.3393 12.2749 27.5387 12.0977 27.6998C11.9206 27.861 11.7069 27.9861 11.4571 28.0747C11.2074 28.1633 10.9309 28.2073 10.6291 28.2073H9.93371V30.2855H9.93429ZM9.93429 25.2387V27.5198H10.7937C10.908 27.5198 11.0211 27.5004 11.1337 27.461C11.2457 27.4221 11.3486 27.3581 11.4423 27.2695C11.536 27.181 11.6114 27.0575 11.6686 26.8987C11.7257 26.7398 11.7543 26.5433 11.7543 26.309C11.7543 26.2153 11.7411 26.1067 11.7154 25.985C11.6891 25.8627 11.636 25.7455 11.5554 25.6335C11.4743 25.5215 11.3611 25.4278 11.2154 25.3524C11.0697 25.277 10.8766 25.2393 10.6371 25.2393H9.93429V25.2387Z" fill="white"/>
<path d="M18.4109 27.2467C18.4109 27.7204 18.36 28.1255 18.2583 28.4615C18.1566 28.7975 18.028 29.0787 17.8714 29.3055C17.7149 29.5324 17.5394 29.7107 17.344 29.841C17.1486 29.9713 16.96 30.0684 16.7777 30.1341C16.5954 30.1993 16.4286 30.241 16.2777 30.2593C16.1269 30.2764 16.0149 30.2855 15.9417 30.2855H13.7623V24.5278H15.4966C15.9811 24.5278 16.4069 24.605 16.7737 24.7581C17.1406 24.9113 17.4457 25.1164 17.688 25.3713C17.9303 25.6261 18.1109 25.917 18.2309 26.2421C18.3509 26.5678 18.4109 26.9027 18.4109 27.2467ZM15.6297 29.5981C16.2651 29.5981 16.7234 29.3953 17.0046 28.989C17.2857 28.5827 17.4263 27.9941 17.4263 27.2233C17.4263 26.9838 17.3977 26.7467 17.3406 26.5124C17.2829 26.2781 17.1726 26.0661 17.0086 25.8758C16.8446 25.6855 16.6217 25.5318 16.3406 25.4147C16.0594 25.2975 15.6949 25.2387 15.2469 25.2387H14.7V29.5981H15.6297Z" fill="white"/>
<path d="M20.7234 25.2387V27.0513H23.1297V27.6918H20.7234V30.2855H19.7703V24.5278H23.3714V25.2387H20.7234Z" fill="white"/>
</svg>
