<svg width="34" height="34" viewBox="0 0 34 34" fill="none" xmlns="http://www.w3.org/2000/svg">
<rect width="34" height="34" rx="17" fill="white"/>
<path d="M15.25 16.2708C14.3634 16.2708 13.6459 15.5533 13.6459 14.6667C13.6459 13.78 14.3634 13.0625 15.25 13.0625C16.1367 13.0625 16.8542 13.78 16.8542 14.6667C16.8542 15.5533 16.1367 16.2708 15.25 16.2708ZM15.25 13.9375C14.8475 13.9375 14.5209 14.2642 14.5209 14.6667C14.5209 15.0692 14.8475 15.3958 15.25 15.3958C15.6525 15.3958 15.9792 15.0692 15.9792 14.6667C15.9792 14.2642 15.6525 13.9375 15.25 13.9375Z" fill="#3E4543"/>
<path d="M18.75 23.2712H15.25C12.0825 23.2712 10.7291 21.9178 10.7291 18.7503V15.2503C10.7291 12.0828 12.0825 10.7295 15.25 10.7295H17.5833C17.8225 10.7295 18.0208 10.9278 18.0208 11.167C18.0208 11.4062 17.8225 11.6045 17.5833 11.6045H15.25C12.5608 11.6045 11.6041 12.5612 11.6041 15.2503V18.7503C11.6041 21.4395 12.5608 22.3962 15.25 22.3962H18.75C21.4391 22.3962 22.3958 21.4395 22.3958 18.7503V15.8337C22.3958 15.5945 22.5941 15.3962 22.8333 15.3962C23.0725 15.3962 23.2708 15.5945 23.2708 15.8337V18.7503C23.2708 21.9178 21.9175 23.2712 18.75 23.2712Z" fill="#3E4543"/>
<path d="M19.1409 15.687C18.9134 15.687 18.7034 15.6054 18.5517 15.4479C18.3709 15.267 18.2834 14.9987 18.3242 14.7245L18.4409 13.9137C18.4701 13.7095 18.5926 13.4587 18.7442 13.3128L20.8617 11.1954C21.7076 10.3495 22.4426 10.8337 22.8042 11.1954C23.1484 11.5395 23.3059 11.9012 23.2709 12.2745C23.2417 12.572 23.0901 12.8579 22.8042 13.1379L20.6867 15.2554C20.5409 15.4012 20.2901 15.5237 20.0859 15.5587L19.2751 15.6753C19.2284 15.687 19.1817 15.687 19.1409 15.687ZM21.4742 11.8195L19.3567 13.937C19.3392 13.9545 19.3101 14.0187 19.3042 14.0479L19.1934 14.8062L19.9576 14.7012C19.9809 14.6954 20.0451 14.6662 20.0684 14.6428L22.1859 12.5253C22.3142 12.397 22.3901 12.2804 22.3959 12.1929C22.4076 12.0704 22.2851 11.9187 22.1859 11.8195C21.8826 11.5162 21.7426 11.5512 21.4742 11.8195Z" fill="#3E4543"/>
<path d="M22.1917 13.5756C22.1509 13.5756 22.11 13.5698 22.075 13.5581C21.2934 13.3364 20.6692 12.7123 20.4475 11.9306C20.3834 11.6973 20.5175 11.4581 20.7509 11.3939C20.9842 11.3298 21.2234 11.4639 21.2875 11.6973C21.4275 12.1873 21.8184 12.5839 22.3142 12.7239C22.5475 12.7881 22.6817 13.0331 22.6175 13.2606C22.5534 13.4473 22.3784 13.5756 22.1917 13.5756Z" fill="#3E4543"/>
<path d="M11.5575 21.4921C11.4175 21.4921 11.2775 21.4221 11.1958 21.2996C11.0616 21.1013 11.1141 20.8271 11.3125 20.693L14.1883 18.7621C14.8183 18.3421 15.6875 18.3888 16.2591 18.873L16.4516 19.0421C16.7433 19.293 17.2391 19.293 17.525 19.0421L19.9516 16.9596C20.57 16.4288 21.5441 16.4288 22.1683 16.9596L23.1191 17.7763C23.3 17.9338 23.3233 18.208 23.1658 18.3946C23.0083 18.5755 22.7341 18.5988 22.5475 18.4413L21.5966 17.6246C21.305 17.3738 20.8091 17.3738 20.5233 17.6246L18.0966 19.7071C17.4783 20.238 16.5041 20.238 15.88 19.7071L15.6875 19.538C15.4191 19.3105 14.9758 19.2871 14.6783 19.4913L11.8083 21.4221C11.7266 21.4688 11.6391 21.4921 11.5575 21.4921Z" fill="#3E4543"/>
</svg>
